REM DIRINDEX 1\2,1\3,1\4,1\6,1\5\7,1\5\8
REM DIRNAME cjc114,folder01,folder02,folder03,folder04,folder05,folder06,folder07
TITLE ""
FILE "DB4500_5th_6C_24.mp3" MP3
  TRACK 01 AUDIO
    TITLE "0:"
    INDEX 01 00:00:00
  TRACK 02 AUDIO
    TITLE "2:cjc114_4052"
    INDEX 01 00:00:03
  TRACK 03 AUDIO
    TITLE "0:"
    INDEX 01 00:01:32
  TRACK 04 AUDIO
    TITLE "3:cjc114_4053"
    INDEX 01 00:01:44
  TRACK 05 AUDIO
    TITLE "0:"
    INDEX 01 00:02:69
  TRACK 06 AUDIO
    TITLE "4:cjc114_4054"
    INDEX 01 00:03:08
  TRACK 07 AUDIO
    TITLE "0:"
    INDEX 01 00:06:43
  TRACK 08 AUDIO
    TITLE "2:cjc114_4055"
    INDEX 01 00:07:05
  TRACK 09 AUDIO
    TITLE "0:"
    INDEX 01 00:08:26
  TRACK 10 AUDIO
    TITLE "3:cjc114_4056"
    INDEX 01 00:08:40
  TRACK 11 AUDIO
    TITLE "0:"
    INDEX 01 00:09:69
  TRACK 12 AUDIO
    TITLE "4:cjc114_4057"
    INDEX 01 00:10:08
  TRACK 13 AUDIO
    TITLE "0:"
    INDEX 01 00:12:26
  TRACK 14 AUDIO
    TITLE "2:cjc114_4058"
    INDEX 01 00:12:65
  TRACK 15 AUDIO
    TITLE "0:"
    INDEX 01 00:13:69
  TRACK 16 AUDIO
    TITLE "3:cjc114_4059"
    INDEX 01 00:14:09
  TRACK 17 AUDIO
    TITLE "0:"
    INDEX 01 00:15:34
  TRACK 18 AUDIO
    TITLE "4:cjc114_4060"
    INDEX 01 00:15:48
  TRACK 19 AUDIO
    TITLE "0:"
    INDEX 01 00:18:29
  TRACK 20 AUDIO
    TITLE "2:cjc114_4061"
    INDEX 01 00:18:66
  TRACK 21 AUDIO
    TITLE "0:"
    INDEX 01 00:19:69
  TRACK 22 AUDIO
    TITLE "3:cjc114_4062"
    INDEX 01 00:20:08
  TRACK 23 AUDIO
    TITLE "0:"
    INDEX 01 00:21:33
  TRACK 24 AUDIO
    TITLE "4:cjc114_4063"
    INDEX 01 00:21:47
  TRACK 25 AUDIO
    TITLE "0:"
    INDEX 01 00:24:31
  TRACK 26 AUDIO
    TITLE "2:cjc114_4064"
    INDEX 01 00:24:69
  TRACK 27 AUDIO
    TITLE "0:"
    INDEX 01 00:26:03
  TRACK 28 AUDIO
    TITLE "3:cjc114_4065"
    INDEX 01 00:26:15
  TRACK 29 AUDIO
    TITLE "0:"
    INDEX 01 00:27:26
  TRACK 30 AUDIO
    TITLE "4:cjc114_4066"
    INDEX 01 00:27:38
  TRACK 31 AUDIO
    TITLE "0:"
    INDEX 01 00:29:40
  TRACK 32 AUDIO
    TITLE "2:cjc114_4067"
    INDEX 01 00:30:03
  TRACK 33 AUDIO
    TITLE "0:"
    INDEX 01 00:31:12
  TRACK 34 AUDIO
    TITLE "3:cjc114_4068"
    INDEX 01 00:31:26
  TRACK 35 AUDIO
    TITLE "0:"
    INDEX 01 00:32:41
  TRACK 36 AUDIO
    TITLE "4:cjc114_4069"
    INDEX 01 00:32:52
  TRACK 37 AUDIO
    TITLE "0:"
    INDEX 01 00:36:13
  TRACK 38 AUDIO
    TITLE "2:cjc114_4070"
    INDEX 01 00:36:54
  TRACK 39 AUDIO
    TITLE "0:"
    INDEX 01 00:38:71
  TRACK 40 AUDIO
    TITLE "3:cjc114_4071"
    INDEX 01 00:39:09
  TRACK 41 AUDIO
    TITLE "0:"
    INDEX 01 00:40:15
  TRACK 42 AUDIO
    TITLE "4:cjc114_4072"
    INDEX 01 00:40:26
  TRACK 43 AUDIO
    TITLE "0:"
    INDEX 01 00:43:19
  TRACK 44 AUDIO
    TITLE "2:cjc114_4073"
    INDEX 01 00:43:56
  TRACK 45 AUDIO
    TITLE "0:"
    INDEX 01 00:44:60
  TRACK 46 AUDIO
    TITLE "3:cjc114_4074"
    INDEX 01 00:44:71
  TRACK 47 AUDIO
    TITLE "0:"
    INDEX 01 00:46:02
  TRACK 48 AUDIO
    TITLE "4:cjc114_4075"
    INDEX 01 00:46:15
  TRACK 49 AUDIO
    TITLE "0:"
    INDEX 01 00:50:21
  TRACK 50 AUDIO
    TITLE "2:cjc114_4076"
    INDEX 01 00:50:58
  TRACK 51 AUDIO
    TITLE "0:"
    INDEX 01 00:51:71
  TRACK 52 AUDIO
    TITLE "3:cjc114_4077"
    INDEX 01 00:52:08
  TRACK 53 AUDIO
    TITLE "0:"
    INDEX 01 00:53:27
  TRACK 54 AUDIO
    TITLE "4:cjc114_4078"
    INDEX 01 00:53:41
  TRACK 55 AUDIO
    TITLE "0:"
    INDEX 01 00:57:29
  TRACK 56 AUDIO
    TITLE "2:cjc114_4079"
    INDEX 01 00:57:64
  TRACK 57 AUDIO
    TITLE "0:"
    INDEX 01 00:59:08
  TRACK 58 AUDIO
    TITLE "3:cjc114_4080"
    INDEX 01 00:59:22
  TRACK 59 AUDIO
    TITLE "0:"
    INDEX 01 01:00:31
  TRACK 60 AUDIO
    TITLE "4:cjc114_4081"
    INDEX 01 01:00:43
  TRACK 61 AUDIO
    TITLE "0:"
    INDEX 01 01:04:01
  TRACK 62 AUDIO
    TITLE "2:cjc114_4082"
    INDEX 01 01:04:60
  TRACK 63 AUDIO
    TITLE "0:"
    INDEX 01 01:06:00
  TRACK 64 AUDIO
    TITLE "3:cjc114_4083"
    INDEX 01 01:06:16
  TRACK 65 AUDIO
    TITLE "0:"
    INDEX 01 01:07:25
  TRACK 66 AUDIO
    TITLE "4:cjc114_4084"
    INDEX 01 01:07:41
  TRACK 67 AUDIO
    TITLE "0:"
    INDEX 01 01:12:13
  TRACK 68 AUDIO
    TITLE "2:cjc114_4085"
    INDEX 01 01:12:48
  TRACK 69 AUDIO
    TITLE "0:"
    INDEX 01 01:13:51
  TRACK 70 AUDIO
    TITLE "3:cjc114_4086"
    INDEX 01 01:13:63
  TRACK 71 AUDIO
    TITLE "0:"
    INDEX 01 01:14:65
  TRACK 72 AUDIO
    TITLE "4:cjc114_4087"
    INDEX 01 01:15:03
  TRACK 73 AUDIO
    TITLE "0:"
    INDEX 01 01:17:51
  TRACK 74 AUDIO
    TITLE "2:cjc114_4088"
    INDEX 01 01:18:13
  TRACK 75 AUDIO
    TITLE "0:"
    INDEX 01 01:19:17
  TRACK 76 AUDIO
    TITLE "3:cjc114_4089"
    INDEX 01 01:19:28
  TRACK 77 AUDIO
    TITLE "0:"
    INDEX 01 01:20:40
  TRACK 78 AUDIO
    TITLE "4:cjc114_4090"
    INDEX 01 01:20:51
  TRACK 79 AUDIO
    TITLE "0:"
    INDEX 01 01:25:11
  TRACK 80 AUDIO
    TITLE "2:cjc114_4091"
    INDEX 01 01:25:57
  TRACK 81 AUDIO
    TITLE "0:"
    INDEX 01 01:26:58
  TRACK 82 AUDIO
    TITLE "3:cjc114_4092"
    INDEX 01 01:26:74
  TRACK 83 AUDIO
    TITLE "0:"
    INDEX 01 01:28:22
  TRACK 84 AUDIO
    TITLE "4:cjc114_4093"
    INDEX 01 01:28:35
  TRACK 85 AUDIO
    TITLE "0:"
    INDEX 01 01:32:12
